<svg width="156" height="136" viewBox="0 0 156 136" fill="none" xmlns="http://www.w3.org/2000/svg">
<path d="M155.73 1.23253C155.494 0.863729 155.109 0.550848 154.623 0.33201C154.137 0.113173 153.571 -0.00217145 152.992 3.09605e-05H68.2464C67.7375 0.000623279 67.2369 0.090421 66.7905 0.261198C66.3441 0.431976 65.9661 0.678273 65.6913 0.977531L0.53491 73.2275C0.221228 73.5421 0.0379558 73.9111 0.00528699 74.2938C-0.0273819 74.6765 0.0918201 75.0581 0.349761 75.3965C0.607702 75.7349 0.994369 76.017 1.46715 76.2117C1.93993 76.4064 2.48048 76.5062 3.02922 76.5H49.6912L8.50455 132.812C8.26809 133.147 8.15694 133.519 8.1815 133.892C8.20606 134.265 8.36551 134.627 8.64498 134.946C8.92444 135.264 9.31481 135.528 9.77963 135.712C10.2444 135.896 10.7686 135.995 11.3031 136H29.5541C29.9764 136.002 30.3945 135.943 30.7821 135.825C31.1696 135.708 31.518 135.536 31.8051 135.32L138.696 54.6125C139.12 54.3103 139.406 53.9265 139.516 53.5103C139.626 53.094 139.555 52.6643 139.313 52.2761C139.072 51.888 138.669 51.5592 138.158 51.3318C137.647 51.1045 137.05 50.9889 136.445 51H95.4406L155.243 3.48503C155.629 3.18317 155.88 2.8094 155.967 2.40939C156.053 2.00938 155.971 1.60043 155.73 1.23253V1.23253Z" fill="#FF6644"/>
</svg>
